<mxfile host="app.diagrams.net" modified="2023-05-08T15:48:49.045Z" agent="Mozilla/5.0 (Windows NT 10.0; Win64; x64) AppleWebKit/537.36 (KHTML, like Gecko) Chrome/112.0.0.0 Safari/537.36" etag="3r7QNdXtGknkIY998EiK" version="21.2.9" type="device">
  <diagram id="1OaU7KkYrhNCJhMPf2JZ" name="Page-2">
    <mxGraphModel dx="2950" dy="2082" grid="1" gridSize="10" guides="1" tooltips="1" connect="1" arrows="1" fold="1" page="1" pageScale="1" pageWidth="850" pageHeight="1100" math="0" shadow="0">
      <root>
        <mxCell id="0" />
        <mxCell id="1" parent="0" />
        <mxCell id="5d06dSyMwtI4KQ1la-HC-1" value="" style="endArrow=none;html=1;rounded=0;strokeColor=#67AB9F;strokeWidth=4;" edge="1" parent="1">
          <mxGeometry width="50" height="50" relative="1" as="geometry">
            <mxPoint x="160" y="350" as="sourcePoint" />
            <mxPoint x="160" y="-370" as="targetPoint" />
          </mxGeometry>
        </mxCell>
        <mxCell id="5d06dSyMwtI4KQ1la-HC-2" value="User / Χρήστης" style="swimlane;fontStyle=1;align=center;verticalAlign=top;childLayout=stackLayout;horizontal=1;startSize=30;horizontalStack=0;resizeParent=1;resizeLast=0;collapsible=1;marginBottom=0;rounded=0;shadow=0;strokeWidth=1;fontSize=20;" vertex="1" parent="1">
          <mxGeometry x="735" y="-830" width="180" height="204" as="geometry">
            <mxRectangle x="230" y="140" width="160" height="26" as="alternateBounds" />
          </mxGeometry>
        </mxCell>
        <mxCell id="5d06dSyMwtI4KQ1la-HC-3" value="- id: int&#xa;- username: String&#xa;- email: String&#xa;- password: String&#xa;+ setters/getters()&#xa;+ strore()" style="text;align=left;verticalAlign=top;spacingLeft=4;spacingRight=4;overflow=hidden;rotatable=0;points=[[0,0.5],[1,0.5]];portConstraint=eastwest;fontSize=20;" vertex="1" parent="5d06dSyMwtI4KQ1la-HC-2">
          <mxGeometry y="30" width="180" height="170" as="geometry" />
        </mxCell>
        <mxCell id="5d06dSyMwtI4KQ1la-HC-4" value="&lt;b style=&quot;font-size: 20px;&quot;&gt;Tour_Guide /&amp;nbsp;&lt;/b&gt;&lt;b style=&quot;border-color: var(--border-color);&quot;&gt;Ξεναγός&amp;nbsp;&lt;/b&gt;" style="swimlane;fontStyle=0;childLayout=stackLayout;horizontal=1;startSize=60;horizontalStack=0;resizeParent=1;resizeParentMax=0;resizeLast=0;collapsible=1;marginBottom=0;whiteSpace=wrap;html=1;verticalAlign=middle;fontSize=20;" vertex="1" parent="1">
          <mxGeometry x="735" y="-570" width="190" height="170" as="geometry" />
        </mxCell>
        <mxCell id="5d06dSyMwtI4KQ1la-HC-5" value="- IBAN: String&lt;br&gt;+ setters/getters()&lt;br&gt;+ store()" style="text;strokeColor=none;fillColor=none;align=left;verticalAlign=top;spacingLeft=4;spacingRight=4;overflow=hidden;points=[[0,0.5],[1,0.5]];portConstraint=eastwest;rotatable=0;whiteSpace=wrap;html=1;fontSize=20;" vertex="1" parent="5d06dSyMwtI4KQ1la-HC-4">
          <mxGeometry y="60" width="190" height="110" as="geometry" />
        </mxCell>
        <mxCell id="5d06dSyMwtI4KQ1la-HC-6" value="&lt;b style=&quot;border-color: var(--border-color);&quot;&gt;Host /&amp;nbsp;&lt;/b&gt;&lt;b style=&quot;font-size: 20px;&quot;&gt;Πολιτιστικός Οργανισμός&lt;/b&gt;" style="swimlane;fontStyle=0;childLayout=stackLayout;horizontal=1;startSize=65;horizontalStack=0;resizeParent=1;resizeParentMax=0;resizeLast=0;collapsible=1;marginBottom=0;whiteSpace=wrap;html=1;verticalAlign=middle;fontSize=20;" vertex="1" parent="1">
          <mxGeometry x="1420" y="-545" width="190" height="210" as="geometry" />
        </mxCell>
        <mxCell id="5d06dSyMwtI4KQ1la-HC-7" value="- IBAN: String&lt;br&gt;- name: String&lt;br&gt;- address: String&lt;br&gt;+ setters/getters()&lt;br&gt;+store()" style="text;strokeColor=none;fillColor=none;align=left;verticalAlign=top;spacingLeft=4;spacingRight=4;overflow=hidden;points=[[0,0.5],[1,0.5]];portConstraint=eastwest;rotatable=0;whiteSpace=wrap;html=1;fontSize=20;" vertex="1" parent="5d06dSyMwtI4KQ1la-HC-6">
          <mxGeometry y="65" width="190" height="145" as="geometry" />
        </mxCell>
        <mxCell id="5d06dSyMwtI4KQ1la-HC-8" value="" style="endArrow=blockThin;html=1;rounded=0;exitX=0.5;exitY=0;exitDx=0;exitDy=0;endFill=0;endSize=6;strokeWidth=2;fontSize=20;" edge="1" parent="1" source="5d06dSyMwtI4KQ1la-HC-4" target="5d06dSyMwtI4KQ1la-HC-3">
          <mxGeometry width="50" height="50" relative="1" as="geometry">
            <mxPoint x="680" y="-450" as="sourcePoint" />
            <mxPoint x="730" y="-500" as="targetPoint" />
          </mxGeometry>
        </mxCell>
        <mxCell id="5d06dSyMwtI4KQ1la-HC-9" value="&lt;b style=&quot;border-color: var(--border-color);&quot;&gt;Payment /&amp;nbsp;&lt;/b&gt;&lt;b style=&quot;font-size: 20px;&quot;&gt;Πληρωμή&lt;/b&gt;" style="swimlane;fontStyle=0;childLayout=stackLayout;horizontal=1;startSize=60;horizontalStack=0;resizeParent=1;resizeParentMax=0;resizeLast=0;collapsible=1;marginBottom=0;whiteSpace=wrap;html=1;verticalAlign=middle;fontSize=20;" vertex="1" parent="1">
          <mxGeometry x="-170" y="-167" width="208" height="310" as="geometry" />
        </mxCell>
        <mxCell id="5d06dSyMwtI4KQ1la-HC-10" value="- id: int&lt;br style=&quot;font-size: 20px;&quot;&gt;- user_id: int&lt;br style=&quot;font-size: 20px;&quot;&gt;- product_id: int&lt;br style=&quot;font-size: 20px;&quot;&gt;- amount: float&lt;br style=&quot;font-size: 20px;&quot;&gt;- date: DateTime&lt;br style=&quot;font-size: 20px;&quot;&gt;- receipt_path: String&lt;br&gt;&lt;br&gt;+ setters/getters()&lt;br&gt;+ store()&amp;nbsp;" style="text;strokeColor=none;fillColor=none;align=left;verticalAlign=top;spacingLeft=4;spacingRight=4;overflow=hidden;points=[[0,0.5],[1,0.5]];portConstraint=eastwest;rotatable=0;whiteSpace=wrap;html=1;fontSize=20;" vertex="1" parent="5d06dSyMwtI4KQ1la-HC-9">
          <mxGeometry y="60" width="208" height="250" as="geometry" />
        </mxCell>
        <mxCell id="5d06dSyMwtI4KQ1la-HC-11" value="" style="endArrow=none;html=1;rounded=0;exitX=0;exitY=0.5;exitDx=0;exitDy=0;entryX=1;entryY=0.5;entryDx=0;entryDy=0;" edge="1" parent="5d06dSyMwtI4KQ1la-HC-9">
          <mxGeometry width="50" height="50" relative="1" as="geometry">
            <mxPoint x="2.2737367544323206e-13" y="225.00000000000023" as="sourcePoint" />
            <mxPoint x="208" y="225.00000000000023" as="targetPoint" />
          </mxGeometry>
        </mxCell>
        <mxCell id="5d06dSyMwtI4KQ1la-HC-12" value="&lt;b style=&quot;border-color: var(--border-color);&quot;&gt;Job_Offer /&amp;nbsp;&lt;/b&gt;&lt;b style=&quot;font-size: 20px;&quot;&gt;Αγγελία Εργασίας&lt;/b&gt;" style="swimlane;fontStyle=0;childLayout=stackLayout;horizontal=1;startSize=50;horizontalStack=0;resizeParent=1;resizeParentMax=0;resizeLast=0;collapsible=1;marginBottom=0;whiteSpace=wrap;html=1;fontSize=20;" vertex="1" parent="1">
          <mxGeometry x="1030" y="551" width="312.5" height="370" as="geometry" />
        </mxCell>
        <mxCell id="5d06dSyMwtI4KQ1la-HC-13" value="- employer: Host&lt;br&gt;- date_opened: DateTime&lt;br&gt;- expires: DateTime&lt;br&gt;- title: String&lt;br&gt;- tags: List(String)&lt;br&gt;- no_employees: int&lt;br&gt;- description: String&lt;br&gt;- salary: float&lt;br&gt;- files_path: List(String)&lt;br&gt;- public: boolean&lt;br&gt;+ setters/getters()&lt;br&gt;+ store()" style="text;strokeColor=none;fillColor=none;align=left;verticalAlign=top;spacingLeft=4;spacingRight=4;overflow=hidden;points=[[0,0.5],[1,0.5]];portConstraint=eastwest;rotatable=0;whiteSpace=wrap;html=1;fontSize=20;" vertex="1" parent="5d06dSyMwtI4KQ1la-HC-12">
          <mxGeometry y="50" width="312.5" height="320" as="geometry" />
        </mxCell>
        <mxCell id="5d06dSyMwtI4KQ1la-HC-14" value="" style="endArrow=none;html=1;rounded=0;entryX=0.997;entryY=0.683;entryDx=0;entryDy=0;entryPerimeter=0;" edge="1" parent="5d06dSyMwtI4KQ1la-HC-12">
          <mxGeometry width="50" height="50" relative="1" as="geometry">
            <mxPoint y="297" as="sourcePoint" />
            <mxPoint x="312.5024999999998" y="297" as="targetPoint" />
          </mxGeometry>
        </mxCell>
        <mxCell id="5d06dSyMwtI4KQ1la-HC-15" value="&lt;b style=&quot;border-color: var(--border-color);&quot;&gt;Job_Application /&amp;nbsp;&lt;/b&gt;&lt;b style=&quot;font-size: 20px;&quot;&gt;Αίτηση Εργασίας&lt;/b&gt;" style="swimlane;fontStyle=0;childLayout=stackLayout;horizontal=1;startSize=50;horizontalStack=0;resizeParent=1;resizeParentMax=0;resizeLast=0;collapsible=1;marginBottom=0;whiteSpace=wrap;html=1;fontSize=20;" vertex="1" parent="1">
          <mxGeometry x="277.5" y="540" width="322.5" height="260" as="geometry" />
        </mxCell>
        <mxCell id="5d06dSyMwtI4KQ1la-HC-16" value="- applicant: enum(Simple_User,)&lt;br&gt;- respondingTo: JobOffer&lt;br&gt;- date_of_application: DateTime&lt;br&gt;- status: enum()&lt;br&gt;- files_path: List(String)&lt;br&gt;+ setters/getters()&lt;br&gt;+ store()&lt;br&gt;+ sendApplication()" style="text;strokeColor=none;fillColor=none;align=left;verticalAlign=top;spacingLeft=4;spacingRight=4;overflow=hidden;points=[[0,0.5],[1,0.5]];portConstraint=eastwest;rotatable=0;whiteSpace=wrap;html=1;fontSize=20;" vertex="1" parent="5d06dSyMwtI4KQ1la-HC-15">
          <mxGeometry y="50" width="322.5" height="210" as="geometry" />
        </mxCell>
        <mxCell id="5d06dSyMwtI4KQ1la-HC-17" value="" style="endArrow=none;html=1;rounded=0;exitX=0;exitY=0.5;exitDx=0;exitDy=0;entryX=0.997;entryY=0.683;entryDx=0;entryDy=0;entryPerimeter=0;" edge="1" parent="5d06dSyMwtI4KQ1la-HC-15">
          <mxGeometry width="50" height="50" relative="1" as="geometry">
            <mxPoint x="2.2737367544323206e-13" y="178.00000000000023" as="sourcePoint" />
            <mxPoint x="321.5324999999998" y="177.76999999999998" as="targetPoint" />
          </mxGeometry>
        </mxCell>
        <mxCell id="5d06dSyMwtI4KQ1la-HC-18" value="&lt;b style=&quot;font-size: 20px;&quot;&gt;Tour /&amp;nbsp;&lt;/b&gt;&lt;b style=&quot;border-color: var(--border-color);&quot;&gt;Ξενάγηση&amp;nbsp;&lt;/b&gt;&lt;b style=&quot;font-size: 20px;&quot;&gt;&amp;nbsp;&lt;/b&gt;" style="swimlane;fontStyle=0;childLayout=stackLayout;horizontal=1;startSize=30;horizontalStack=0;resizeParent=1;resizeParentMax=0;resizeLast=0;collapsible=1;marginBottom=0;whiteSpace=wrap;html=1;fontSize=20;" vertex="1" parent="1">
          <mxGeometry x="470" y="-300" width="305" height="510" as="geometry" />
        </mxCell>
        <mxCell id="5d06dSyMwtI4KQ1la-HC-19" value="- id: int&amp;nbsp;&lt;br style=&quot;font-size: 20px;&quot;&gt;- title: String&lt;br style=&quot;font-size: 20px;&quot;&gt;- tags: List(String)&lt;br style=&quot;font-size: 20px;&quot;&gt;- virtual: boolean&lt;br style=&quot;font-size: 20px;&quot;&gt;- offered_by: TourGuide&lt;br style=&quot;font-size: 20px;&quot;&gt;- description: String&lt;br style=&quot;font-size: 20px;&quot;&gt;- duration: int&lt;br style=&quot;font-size: 20px;&quot;&gt;- public: boolean&lt;br style=&quot;font-size: 20px;&quot;&gt;- date_published: DateTime&lt;br style=&quot;font-size: 20px;&quot;&gt;- dates_available: List(DateTime)&lt;br&gt;- groups_per_date: int&lt;br style=&quot;font-size: 20px;&quot;&gt;- spots_per_group: int&lt;br&gt;- location: String&lt;br&gt;- price: float&lt;br style=&quot;font-size: 20px;&quot;&gt;- rating: float&lt;br style=&quot;font-size: 20px;&quot;&gt;- times_bought: int&lt;br&gt;+ setters/getters()&lt;br&gt;+store()" style="text;strokeColor=none;fillColor=none;align=left;verticalAlign=top;spacingLeft=4;spacingRight=4;overflow=hidden;points=[[0,0.5],[1,0.5]];portConstraint=eastwest;rotatable=0;whiteSpace=wrap;html=1;fontSize=20;" vertex="1" parent="5d06dSyMwtI4KQ1la-HC-18">
          <mxGeometry y="30" width="305" height="480" as="geometry" />
        </mxCell>
        <mxCell id="5d06dSyMwtI4KQ1la-HC-20" value="" style="endArrow=none;html=1;rounded=0;exitX=0;exitY=0.5;exitDx=0;exitDy=0;" edge="1" parent="5d06dSyMwtI4KQ1la-HC-18">
          <mxGeometry width="50" height="50" relative="1" as="geometry">
            <mxPoint x="-2.4999999999997726" y="421.0000000000002" as="sourcePoint" />
            <mxPoint x="303" y="421" as="targetPoint" />
          </mxGeometry>
        </mxCell>
        <mxCell id="5d06dSyMwtI4KQ1la-HC-21" value="&lt;b style=&quot;border-color: var(--border-color);&quot;&gt;Virtual_Tour /&lt;/b&gt;&lt;b style=&quot;font-size: 20px;&quot;&gt;Εικονική Ξενάγηση&amp;nbsp;&lt;/b&gt;" style="swimlane;fontStyle=0;childLayout=stackLayout;horizontal=1;startSize=60;horizontalStack=0;resizeParent=1;resizeParentMax=0;resizeLast=0;collapsible=1;marginBottom=0;whiteSpace=wrap;html=1;fontSize=20;" vertex="1" parent="1">
          <mxGeometry x="230" y="90" width="205" height="170" as="geometry" />
        </mxCell>
        <mxCell id="5d06dSyMwtI4KQ1la-HC-22" value="- path: String&lt;br&gt;&lt;br&gt;+ setters/getters()&lt;br&gt;+store()" style="text;strokeColor=none;fillColor=none;align=left;verticalAlign=top;spacingLeft=4;spacingRight=4;overflow=hidden;points=[[0,0.5],[1,0.5]];portConstraint=eastwest;rotatable=0;whiteSpace=wrap;html=1;fontSize=20;" vertex="1" parent="5d06dSyMwtI4KQ1la-HC-21">
          <mxGeometry y="60" width="205" height="110" as="geometry" />
        </mxCell>
        <mxCell id="5d06dSyMwtI4KQ1la-HC-23" value="&lt;b style=&quot;border-color: var(--border-color);&quot;&gt;Event /&amp;nbsp;&lt;/b&gt;&lt;b style=&quot;font-size: 20px;&quot;&gt;Εκδήλωση&lt;/b&gt;" style="swimlane;fontStyle=0;childLayout=stackLayout;horizontal=1;startSize=30;horizontalStack=0;resizeParent=1;resizeParentMax=0;resizeLast=0;collapsible=1;marginBottom=0;whiteSpace=wrap;html=1;fontSize=20;" vertex="1" parent="1">
          <mxGeometry x="1030" y="120" width="270" height="400" as="geometry" />
        </mxCell>
        <mxCell id="5d06dSyMwtI4KQ1la-HC-24" value="- id: int&amp;nbsp;&lt;br style=&quot;font-size: 20px;&quot;&gt;- title: String&lt;br style=&quot;font-size: 20px;&quot;&gt;- tags: List(String)&lt;br style=&quot;font-size: 20px;&quot;&gt;- planner: enum(Tour_Guide, Host)&lt;br style=&quot;font-size: 20px;&quot;&gt;- publisher:&amp;nbsp;&lt;br style=&quot;font-size: 20px;&quot;&gt;- description: String&lt;br style=&quot;font-size: 20px;&quot;&gt;- date_of_event: DateTime&lt;br&gt;- location: String&lt;br style=&quot;font-size: 20px;&quot;&gt;- date_uploaded: DateTime&lt;br style=&quot;font-size: 20px;&quot;&gt;- rating: float&amp;nbsp;&lt;br&gt;- attends: int&lt;br&gt;+ setters/getters()&lt;br&gt;+ store()" style="text;strokeColor=none;fillColor=none;align=left;verticalAlign=top;spacingLeft=4;spacingRight=4;overflow=hidden;points=[[0,0.5],[1,0.5]];portConstraint=eastwest;rotatable=0;whiteSpace=wrap;html=1;fontSize=20;" vertex="1" parent="5d06dSyMwtI4KQ1la-HC-23">
          <mxGeometry y="30" width="270" height="370" as="geometry" />
        </mxCell>
        <mxCell id="5d06dSyMwtI4KQ1la-HC-25" value="" style="endArrow=none;html=1;rounded=0;exitX=-0.001;exitY=0.706;exitDx=0;exitDy=0;exitPerimeter=0;" edge="1" parent="5d06dSyMwtI4KQ1la-HC-23">
          <mxGeometry width="50" height="50" relative="1" as="geometry">
            <mxPoint x="0.004999999999881766" y="325.6200000000001" as="sourcePoint" />
            <mxPoint x="270" y="326" as="targetPoint" />
          </mxGeometry>
        </mxCell>
        <mxCell id="5d06dSyMwtI4KQ1la-HC-26" value="&lt;b style=&quot;font-size: 20px;&quot;&gt;Quiz&lt;/b&gt;" style="swimlane;fontStyle=0;childLayout=stackLayout;horizontal=1;startSize=30;horizontalStack=0;resizeParent=1;resizeParentMax=0;resizeLast=0;collapsible=1;marginBottom=0;whiteSpace=wrap;html=1;fontSize=20;" vertex="1" parent="1">
          <mxGeometry x="1015" y="-260" width="255" height="300" as="geometry" />
        </mxCell>
        <mxCell id="5d06dSyMwtI4KQ1la-HC-27" value="- id: int&amp;nbsp;&lt;br style=&quot;font-size: 20px;&quot;&gt;- title: String&lt;br style=&quot;font-size: 20px;&quot;&gt;- on_tour: Tour&lt;br style=&quot;font-size: 20px;&quot;&gt;- description: String&lt;br style=&quot;font-size: 20px;&quot;&gt;- success_point: int&lt;br&gt;- path: String&lt;br style=&quot;font-size: 20px;&quot;&gt;- date_uploaded: DateTime&lt;br&gt;&lt;br&gt;+ setters/getters()&lt;br&gt;+store()" style="text;strokeColor=none;fillColor=none;align=left;verticalAlign=top;spacingLeft=4;spacingRight=4;overflow=hidden;points=[[0,0.5],[1,0.5]];portConstraint=eastwest;rotatable=0;whiteSpace=wrap;html=1;fontSize=20;" vertex="1" parent="5d06dSyMwtI4KQ1la-HC-26">
          <mxGeometry y="30" width="255" height="270" as="geometry" />
        </mxCell>
        <mxCell id="5d06dSyMwtI4KQ1la-HC-28" value="" style="endArrow=none;html=1;rounded=0;exitX=0.557;exitY=-0.009;exitDx=0;exitDy=0;strokeColor=#67AB9F;strokeWidth=4;entryX=0.174;entryY=1.024;entryDx=0;entryDy=0;entryPerimeter=0;fontSize=20;exitPerimeter=0;" edge="1" parent="1" source="5d06dSyMwtI4KQ1la-HC-9">
          <mxGeometry width="50" height="50" relative="1" as="geometry">
            <mxPoint x="30" y="-360" as="sourcePoint" />
            <mxPoint x="43.059999999999945" y="-366.8800000000001" as="targetPoint" />
            <Array as="points">
              <mxPoint x="-54" y="-280" />
              <mxPoint x="43" y="-280" />
            </Array>
          </mxGeometry>
        </mxCell>
        <mxCell id="5d06dSyMwtI4KQ1la-HC-29" value="" style="endArrow=none;html=1;rounded=0;exitX=0.666;exitY=0.006;exitDx=0;exitDy=0;startArrow=none;startFill=0;strokeWidth=4;strokeColor=#99004D;fontSize=20;entryX=0.135;entryY=0.999;entryDx=0;entryDy=0;entryPerimeter=0;exitPerimeter=0;" edge="1" parent="1" source="5d06dSyMwtI4KQ1la-HC-18" target="5d06dSyMwtI4KQ1la-HC-5">
          <mxGeometry width="50" height="50" relative="1" as="geometry">
            <mxPoint x="670" y="-250" as="sourcePoint" />
            <mxPoint x="720" y="-300" as="targetPoint" />
            <Array as="points">
              <mxPoint x="673" y="-340" />
              <mxPoint x="760" y="-340" />
            </Array>
          </mxGeometry>
        </mxCell>
        <mxCell id="5d06dSyMwtI4KQ1la-HC-30" value="" style="endArrow=none;html=1;rounded=0;startArrow=block;startFill=0;entryX=0.5;entryY=0;entryDx=0;entryDy=0;fontSize=20;" edge="1" parent="1" source="5d06dSyMwtI4KQ1la-HC-19" target="5d06dSyMwtI4KQ1la-HC-21">
          <mxGeometry width="50" height="50" relative="1" as="geometry">
            <mxPoint x="462.41499999999996" y="-10.800000000000182" as="sourcePoint" />
            <mxPoint x="650" y="50" as="targetPoint" />
          </mxGeometry>
        </mxCell>
        <mxCell id="5d06dSyMwtI4KQ1la-HC-31" value="" style="endArrow=none;html=1;rounded=0;entryX=0.479;entryY=1.005;entryDx=0;entryDy=0;entryPerimeter=0;strokeColor=#7EA6E0;strokeWidth=4;fontSize=20;exitX=0.997;exitY=0.028;exitDx=0;exitDy=0;exitPerimeter=0;" edge="1" parent="1" source="5d06dSyMwtI4KQ1la-HC-18" target="5d06dSyMwtI4KQ1la-HC-7">
          <mxGeometry width="50" height="50" relative="1" as="geometry">
            <mxPoint x="780" y="-280" as="sourcePoint" />
            <mxPoint x="930" y="-340" as="targetPoint" />
            <Array as="points">
              <mxPoint x="1511" y="-286" />
            </Array>
          </mxGeometry>
        </mxCell>
        <mxCell id="5d06dSyMwtI4KQ1la-HC-32" value="" style="endArrow=none;html=1;rounded=0;strokeWidth=4;strokeColor=#99004D;fontSize=20;entryX=0.71;entryY=1.012;entryDx=0;entryDy=0;entryPerimeter=0;" edge="1" parent="1" target="5d06dSyMwtI4KQ1la-HC-5">
          <mxGeometry width="50" height="50" relative="1" as="geometry">
            <mxPoint x="1066" y="-260" as="sourcePoint" />
            <mxPoint x="860" y="-400" as="targetPoint" />
            <Array as="points">
              <mxPoint x="1066" y="-340" />
              <mxPoint x="870" y="-340" />
            </Array>
          </mxGeometry>
        </mxCell>
        <mxCell id="5d06dSyMwtI4KQ1la-HC-33" value="" style="endArrow=none;html=1;rounded=0;strokeColor=#7EA6E0;strokeWidth=4;fontSize=20;" edge="1" parent="1">
          <mxGeometry width="50" height="50" relative="1" as="geometry">
            <mxPoint x="1272" y="-140" as="sourcePoint" />
            <mxPoint x="1510" y="-334" as="targetPoint" />
            <Array as="points">
              <mxPoint x="1510" y="-140" />
              <mxPoint x="1510" y="-280" />
            </Array>
          </mxGeometry>
        </mxCell>
        <mxCell id="5d06dSyMwtI4KQ1la-HC-34" value="&lt;font style=&quot;font-size: 22px;&quot;&gt;&lt;b&gt;δημιουργεί&lt;/b&gt;&lt;/font&gt;" style="edgeLabel;html=1;align=center;verticalAlign=middle;resizable=0;points=[];" vertex="1" connectable="0" parent="5d06dSyMwtI4KQ1la-HC-33">
          <mxGeometry x="0.104" relative="1" as="geometry">
            <mxPoint x="-117" as="offset" />
          </mxGeometry>
        </mxCell>
        <mxCell id="5d06dSyMwtI4KQ1la-HC-35" value="" style="endArrow=none;html=1;rounded=0;entryX=0.48;entryY=1.043;entryDx=0;entryDy=0;entryPerimeter=0;strokeColor=#7EA6E0;strokeWidth=4;fontSize=20;" edge="1" parent="1" target="5d06dSyMwtI4KQ1la-HC-7">
          <mxGeometry width="50" height="50" relative="1" as="geometry">
            <mxPoint x="1300" y="220" as="sourcePoint" />
            <mxPoint x="1130" y="-250" as="targetPoint" />
            <Array as="points">
              <mxPoint x="1511" y="220" />
            </Array>
          </mxGeometry>
        </mxCell>
        <mxCell id="5d06dSyMwtI4KQ1la-HC-36" value="" style="endArrow=none;html=1;rounded=0;entryX=0.493;entryY=1.009;entryDx=0;entryDy=0;entryPerimeter=0;strokeWidth=4;strokeColor=#7EA6E0;fontSize=20;exitX=1;exitY=0.309;exitDx=0;exitDy=0;exitPerimeter=0;" edge="1" parent="1" source="5d06dSyMwtI4KQ1la-HC-13" target="5d06dSyMwtI4KQ1la-HC-7">
          <mxGeometry width="50" height="50" relative="1" as="geometry">
            <mxPoint x="1350" y="701" as="sourcePoint" />
            <mxPoint x="1130" as="targetPoint" />
            <Array as="points">
              <mxPoint x="1510" y="701" />
            </Array>
          </mxGeometry>
        </mxCell>
        <mxCell id="5d06dSyMwtI4KQ1la-HC-37" value="" style="endArrow=none;html=1;rounded=0;entryX=0.368;entryY=1.015;entryDx=0;entryDy=0;entryPerimeter=0;strokeWidth=4;strokeColor=#67AB9F;fontSize=20;" edge="1" parent="1">
          <mxGeometry width="50" height="50" relative="1" as="geometry">
            <mxPoint x="270" y="644" as="sourcePoint" />
            <mxPoint x="79.92000000000007" y="-368.04999999999995" as="targetPoint" />
            <Array as="points">
              <mxPoint x="80" y="644" />
            </Array>
          </mxGeometry>
        </mxCell>
        <mxCell id="5d06dSyMwtI4KQ1la-HC-38" value="" style="endArrow=none;html=1;rounded=0;strokeWidth=4;strokeColor=#67AB9F;fontSize=20;entryX=-0.003;entryY=0.29;entryDx=0;entryDy=0;entryPerimeter=0;" edge="1" parent="1" target="5d06dSyMwtI4KQ1la-HC-19">
          <mxGeometry width="50" height="50" relative="1" as="geometry">
            <mxPoint x="160" y="-131" as="sourcePoint" />
            <mxPoint x="470" y="-130" as="targetPoint" />
          </mxGeometry>
        </mxCell>
        <mxCell id="5d06dSyMwtI4KQ1la-HC-39" value="" style="endArrow=none;html=1;rounded=0;strokeColor=#67AB9F;strokeWidth=4;fontSize=20;" edge="1" parent="1">
          <mxGeometry width="50" height="50" relative="1" as="geometry">
            <mxPoint x="160" y="351" as="sourcePoint" />
            <mxPoint x="1020" y="350" as="targetPoint" />
            <Array as="points" />
          </mxGeometry>
        </mxCell>
        <mxCell id="5d06dSyMwtI4KQ1la-HC-40" value="&lt;b style=&quot;font-size: 20px;&quot;&gt;DB communicator&lt;/b&gt;" style="swimlane;fontStyle=0;childLayout=stackLayout;horizontal=1;startSize=30;horizontalStack=0;resizeParent=1;resizeParentMax=0;resizeLast=0;collapsible=1;marginBottom=0;whiteSpace=wrap;html=1;fontSize=20;" vertex="1" parent="1">
          <mxGeometry x="38" y="824" width="205" height="240" as="geometry" />
        </mxCell>
        <mxCell id="5d06dSyMwtI4KQ1la-HC-41" value="- dbname: String&lt;br style=&quot;font-size: 20px;&quot;&gt;- host: String&lt;br style=&quot;font-size: 20px;&quot;&gt;- password: String&lt;br&gt;&lt;br&gt;+ connect()&lt;br&gt;+ disconnect()&lt;br&gt;+ makeQuery()" style="text;strokeColor=none;fillColor=none;align=left;verticalAlign=top;spacingLeft=4;spacingRight=4;overflow=hidden;points=[[0,0.5],[1,0.5]];portConstraint=eastwest;rotatable=0;whiteSpace=wrap;html=1;fontSize=20;" vertex="1" parent="5d06dSyMwtI4KQ1la-HC-40">
          <mxGeometry y="30" width="205" height="210" as="geometry" />
        </mxCell>
        <mxCell id="5d06dSyMwtI4KQ1la-HC-42" value="" style="endArrow=none;html=1;rounded=0;exitX=0;exitY=0.5;exitDx=0;exitDy=0;entryX=1;entryY=0.5;entryDx=0;entryDy=0;" edge="1" parent="5d06dSyMwtI4KQ1la-HC-40">
          <mxGeometry width="50" height="50" relative="1" as="geometry">
            <mxPoint y="127" as="sourcePoint" />
            <mxPoint x="205" y="127" as="targetPoint" />
          </mxGeometry>
        </mxCell>
        <mxCell id="5d06dSyMwtI4KQ1la-HC-43" value="Main" style="swimlane;fontStyle=1;align=center;verticalAlign=top;childLayout=stackLayout;horizontal=1;startSize=40;horizontalStack=0;resizeParent=1;resizeLast=0;collapsible=1;marginBottom=0;rounded=0;shadow=0;strokeWidth=1;fontSize=20;" vertex="1" parent="1">
          <mxGeometry x="310" y="882" width="160" height="124" as="geometry">
            <mxRectangle x="230" y="140" width="160" height="26" as="alternateBounds" />
          </mxGeometry>
        </mxCell>
        <mxCell id="5d06dSyMwtI4KQ1la-HC-44" value="current_user&#xa;current_type" style="text;align=left;verticalAlign=top;spacingLeft=4;spacingRight=4;overflow=hidden;rotatable=0;points=[[0,0.5],[1,0.5]];portConstraint=eastwest;fontSize=20;" vertex="1" parent="5d06dSyMwtI4KQ1la-HC-43">
          <mxGeometry y="40" width="160" height="84" as="geometry" />
        </mxCell>
        <mxCell id="5d06dSyMwtI4KQ1la-HC-45" value="" style="endArrow=none;html=1;rounded=0;strokeColor=#67AB9F;strokeWidth=4;" edge="1" parent="1">
          <mxGeometry width="50" height="50" relative="1" as="geometry">
            <mxPoint x="840" y="350" as="sourcePoint" />
            <mxPoint x="1010" y="-106" as="targetPoint" />
            <Array as="points">
              <mxPoint x="840" y="-106" />
            </Array>
          </mxGeometry>
        </mxCell>
        <mxCell id="5d06dSyMwtI4KQ1la-HC-46" value="" style="endArrow=none;html=1;rounded=0;strokeColor=#99004D;strokeWidth=4;fontSize=20;" edge="1" parent="1">
          <mxGeometry width="50" height="50" relative="1" as="geometry">
            <mxPoint x="1029" y="220" as="sourcePoint" />
            <mxPoint x="870" y="-340" as="targetPoint" />
            <Array as="points">
              <mxPoint x="870" y="220" />
            </Array>
          </mxGeometry>
        </mxCell>
        <mxCell id="5d06dSyMwtI4KQ1la-HC-47" value="&lt;font style=&quot;font-size: 20px;&quot;&gt;κάνει&lt;/font&gt;" style="edgeLabel;html=1;align=center;verticalAlign=middle;resizable=0;points=[];fontStyle=1;fontSize=20;" vertex="1" connectable="0" parent="1">
          <mxGeometry x="-44" y="-287.00400887643127" as="geometry">
            <mxPoint x="6" y="2" as="offset" />
          </mxGeometry>
        </mxCell>
        <mxCell id="5d06dSyMwtI4KQ1la-HC-48" value="&lt;span style=&quot;font-size: 22px;&quot;&gt;&lt;b&gt;οργανώνει&lt;/b&gt;&lt;/span&gt;" style="edgeLabel;html=1;align=center;verticalAlign=middle;resizable=0;points=[];" vertex="1" connectable="0" parent="1">
          <mxGeometry x="1406.9998661324591" y="220" as="geometry">
            <mxPoint x="-9" y="-3" as="offset" />
          </mxGeometry>
        </mxCell>
        <mxCell id="5d06dSyMwtI4KQ1la-HC-49" value="&lt;font style=&quot;font-size: 22px;&quot;&gt;&lt;b&gt;ανεβάζει&lt;/b&gt;&lt;/font&gt;" style="edgeLabel;html=1;align=center;verticalAlign=middle;resizable=0;points=[];" vertex="1" connectable="0" parent="1">
          <mxGeometry x="1439.9998661324591" y="690" as="geometry" />
        </mxCell>
        <mxCell id="5d06dSyMwtI4KQ1la-HC-50" value="&lt;font style=&quot;font-size: 22px;&quot;&gt;&lt;b&gt;δημιουργεί&lt;/b&gt;&lt;/font&gt;" style="edgeLabel;html=1;align=center;verticalAlign=middle;resizable=0;points=[];" vertex="1" connectable="0" parent="1">
          <mxGeometry x="999.9998661324591" y="-340" as="geometry" />
        </mxCell>
        <mxCell id="5d06dSyMwtI4KQ1la-HC-51" value="&lt;font style=&quot;font-size: 22px;&quot;&gt;&lt;b&gt;δημιουργεί&lt;/b&gt;&lt;/font&gt;" style="edgeLabel;html=1;align=center;verticalAlign=middle;resizable=0;points=[];" vertex="1" connectable="0" parent="1">
          <mxGeometry x="672.4998661324591" y="-340" as="geometry" />
        </mxCell>
        <mxCell id="5d06dSyMwtI4KQ1la-HC-52" value="&lt;span style=&quot;font-size: 22px;&quot;&gt;&lt;b&gt;οργανώνει/&lt;br&gt;δημοσιεύει&lt;br&gt;&lt;/b&gt;&lt;/span&gt;" style="edgeLabel;html=1;align=center;verticalAlign=middle;resizable=0;points=[];" vertex="1" connectable="0" parent="1">
          <mxGeometry x="947.9998661324591" y="220" as="geometry">
            <mxPoint x="-9" y="-3" as="offset" />
          </mxGeometry>
        </mxCell>
        <mxCell id="5d06dSyMwtI4KQ1la-HC-53" value="&lt;font style=&quot;font-size: 22px;&quot;&gt;&lt;b&gt;συμμετέχει σε&lt;/b&gt;&lt;/font&gt;" style="edgeLabel;html=1;align=center;verticalAlign=middle;resizable=0;points=[];" vertex="1" connectable="0" parent="1">
          <mxGeometry x="319.99986613245915" y="-130" as="geometry" />
        </mxCell>
        <mxCell id="5d06dSyMwtI4KQ1la-HC-54" value="&lt;font style=&quot;font-size: 22px;&quot;&gt;&lt;b&gt;συμμετέχει σε&lt;/b&gt;&lt;/font&gt;" style="edgeLabel;html=1;align=center;verticalAlign=middle;resizable=0;points=[];" vertex="1" connectable="0" parent="1">
          <mxGeometry x="639.9998661324591" y="350" as="geometry" />
        </mxCell>
        <mxCell id="5d06dSyMwtI4KQ1la-HC-55" value="&lt;span style=&quot;font-size: 22px;&quot;&gt;&lt;b&gt;συμπληρώνει&lt;/b&gt;&lt;/span&gt;" style="edgeLabel;html=1;align=center;verticalAlign=middle;resizable=0;points=[];" vertex="1" connectable="0" parent="1">
          <mxGeometry x="157.49986613245915" y="590" as="geometry" />
        </mxCell>
        <mxCell id="5d06dSyMwtI4KQ1la-HC-56" value="&lt;font style=&quot;font-size: 22px;&quot;&gt;&lt;b&gt;δημιουργεί&lt;/b&gt;&lt;/font&gt;" style="edgeLabel;html=1;align=center;verticalAlign=middle;resizable=0;points=[];" vertex="1" connectable="0" parent="1">
          <mxGeometry x="1399.6666666666665" y="-290" as="geometry" />
        </mxCell>
        <mxCell id="5d06dSyMwtI4KQ1la-HC-57" value="" style="endArrow=none;html=1;rounded=0;strokeColor=#99004D;strokeWidth=4;fontSize=20;exitX=0.315;exitY=0.005;exitDx=0;exitDy=0;exitPerimeter=0;" edge="1" parent="1" source="5d06dSyMwtI4KQ1la-HC-15">
          <mxGeometry width="50" height="50" relative="1" as="geometry">
            <mxPoint x="414" y="550" as="sourcePoint" />
            <mxPoint x="811" y="-400" as="targetPoint" />
            <Array as="points">
              <mxPoint x="380" y="460" />
              <mxPoint x="811" y="460" />
            </Array>
          </mxGeometry>
        </mxCell>
        <mxCell id="5d06dSyMwtI4KQ1la-HC-58" value="&lt;span style=&quot;font-size: 22px;&quot;&gt;&lt;b&gt;συμπληρώνει&lt;/b&gt;&lt;/span&gt;" style="edgeLabel;html=1;align=center;verticalAlign=middle;resizable=0;points=[];" vertex="1" connectable="0" parent="1">
          <mxGeometry x="699.9998661324591" y="457" as="geometry" />
        </mxCell>
        <mxCell id="5d06dSyMwtI4KQ1la-HC-59" value="" style="endArrow=none;html=1;rounded=0;endFill=0;fontSize=20;entryX=1.019;entryY=0.25;entryDx=0;entryDy=0;strokeWidth=1;startArrow=none;startFill=0;entryPerimeter=0;" edge="1" parent="1" target="5d06dSyMwtI4KQ1la-HC-19">
          <mxGeometry width="50" height="50" relative="1" as="geometry">
            <mxPoint x="1010" y="-150" as="sourcePoint" />
            <mxPoint x="800" y="-150" as="targetPoint" />
          </mxGeometry>
        </mxCell>
        <mxCell id="5d06dSyMwtI4KQ1la-HC-60" value="" style="endArrow=none;html=1;rounded=0;entryX=0;entryY=0.5;entryDx=0;entryDy=0;strokeColor=#6D1F00;fillColor=#a0522d;strokeWidth=3;" edge="1" parent="1" target="5d06dSyMwtI4KQ1la-HC-19">
          <mxGeometry width="50" height="50" relative="1" as="geometry">
            <mxPoint x="40" y="-30" as="sourcePoint" />
            <mxPoint x="470.00000000000045" y="-30" as="targetPoint" />
          </mxGeometry>
        </mxCell>
        <mxCell id="5d06dSyMwtI4KQ1la-HC-61" value="&lt;b style=&quot;&quot;&gt;&lt;font style=&quot;font-size: 21px;&quot;&gt;αφορά&lt;/font&gt;&lt;/b&gt;" style="edgeLabel;html=1;align=center;verticalAlign=middle;resizable=0;points=[];" vertex="1" connectable="0" parent="5d06dSyMwtI4KQ1la-HC-60">
          <mxGeometry x="-0.4057" y="-3" relative="1" as="geometry">
            <mxPoint x="122" y="-3" as="offset" />
          </mxGeometry>
        </mxCell>
        <mxCell id="5d06dSyMwtI4KQ1la-HC-62" value="&lt;b style=&quot;&quot;&gt;&lt;font style=&quot;font-size: 21px;&quot;&gt;αφορά&lt;/font&gt;&lt;/b&gt;" style="edgeLabel;html=1;align=center;verticalAlign=middle;resizable=0;points=[];" vertex="1" connectable="0" parent="1">
          <mxGeometry x="350" y="-17" as="geometry">
            <mxPoint x="594" y="-138" as="offset" />
          </mxGeometry>
        </mxCell>
        <mxCell id="5d06dSyMwtI4KQ1la-HC-63" value="*" style="text;html=1;strokeColor=none;fillColor=none;align=center;verticalAlign=middle;whiteSpace=wrap;rounded=0;fontSize=30;fontStyle=1" vertex="1" parent="1">
          <mxGeometry x="38" y="-584" width="60" height="30" as="geometry" />
        </mxCell>
        <mxCell id="5d06dSyMwtI4KQ1la-HC-64" value="1" style="text;html=1;strokeColor=none;fillColor=none;align=center;verticalAlign=middle;whiteSpace=wrap;rounded=0;fontSize=22;fontStyle=1" vertex="1" parent="1">
          <mxGeometry x="849" y="-404" width="60" height="30" as="geometry" />
        </mxCell>
        <mxCell id="5d06dSyMwtI4KQ1la-HC-65" value="*" style="text;html=1;strokeColor=none;fillColor=none;align=center;verticalAlign=middle;whiteSpace=wrap;rounded=0;fontSize=30;fontStyle=1" vertex="1" parent="1">
          <mxGeometry x="663" y="-320" width="60" height="30" as="geometry" />
        </mxCell>
        <mxCell id="5d06dSyMwtI4KQ1la-HC-66" value="*" style="text;html=1;strokeColor=none;fillColor=none;align=center;verticalAlign=middle;whiteSpace=wrap;rounded=0;fontSize=30;fontStyle=1" vertex="1" parent="1">
          <mxGeometry x="1010" y="-279" width="60" height="30" as="geometry" />
        </mxCell>
        <mxCell id="5d06dSyMwtI4KQ1la-HC-67" value="1" style="text;html=1;strokeColor=none;fillColor=none;align=center;verticalAlign=middle;whiteSpace=wrap;rounded=0;fontSize=22;fontStyle=1" vertex="1" parent="1">
          <mxGeometry x="767" y="-180" width="60" height="30" as="geometry" />
        </mxCell>
        <mxCell id="5d06dSyMwtI4KQ1la-HC-68" value="1" style="text;html=1;strokeColor=none;fillColor=none;align=center;verticalAlign=middle;whiteSpace=wrap;rounded=0;fontSize=22;fontStyle=1" vertex="1" parent="1">
          <mxGeometry x="970" y="-180" width="60" height="30" as="geometry" />
        </mxCell>
        <mxCell id="5d06dSyMwtI4KQ1la-HC-69" value="*" style="text;html=1;strokeColor=none;fillColor=none;align=center;verticalAlign=middle;whiteSpace=wrap;rounded=0;fontSize=30;fontStyle=1" vertex="1" parent="1">
          <mxGeometry x="991" y="198" width="60" height="30" as="geometry" />
        </mxCell>
        <mxCell id="5d06dSyMwtI4KQ1la-HC-70" value="*" style="text;html=1;strokeColor=none;fillColor=none;align=center;verticalAlign=middle;whiteSpace=wrap;rounded=0;fontSize=30;fontStyle=1" vertex="1" parent="1">
          <mxGeometry x="310" y="510" width="60" height="30" as="geometry" />
        </mxCell>
        <mxCell id="5d06dSyMwtI4KQ1la-HC-71" value="1" style="text;html=1;strokeColor=none;fillColor=none;align=center;verticalAlign=middle;whiteSpace=wrap;rounded=0;fontSize=22;fontStyle=1" vertex="1" parent="1">
          <mxGeometry x="723" y="-404" width="60" height="30" as="geometry" />
        </mxCell>
        <mxCell id="5d06dSyMwtI4KQ1la-HC-72" value="*" style="text;html=1;strokeColor=none;fillColor=none;align=center;verticalAlign=middle;whiteSpace=wrap;rounded=0;fontSize=30;fontStyle=1" vertex="1" parent="1">
          <mxGeometry x="771" y="-400" width="60" height="30" as="geometry" />
        </mxCell>
        <mxCell id="5d06dSyMwtI4KQ1la-HC-73" value="*" style="text;html=1;strokeColor=none;fillColor=none;align=center;verticalAlign=middle;whiteSpace=wrap;rounded=0;fontSize=30;fontStyle=1" vertex="1" parent="1">
          <mxGeometry x="230" y="620" width="60" height="30" as="geometry" />
        </mxCell>
        <mxCell id="5d06dSyMwtI4KQ1la-HC-74" value="*" style="text;html=1;strokeColor=none;fillColor=none;align=center;verticalAlign=middle;whiteSpace=wrap;rounded=0;fontSize=30;fontStyle=1" vertex="1" parent="1">
          <mxGeometry x="142.5" y="-365" width="60" height="30" as="geometry" />
        </mxCell>
        <mxCell id="5d06dSyMwtI4KQ1la-HC-75" value="*" style="text;html=1;strokeColor=none;fillColor=none;align=center;verticalAlign=middle;whiteSpace=wrap;rounded=0;fontSize=30;fontStyle=1" vertex="1" parent="1">
          <mxGeometry x="955" y="330" width="60" height="30" as="geometry" />
        </mxCell>
        <mxCell id="5d06dSyMwtI4KQ1la-HC-76" value="*" style="text;html=1;strokeColor=none;fillColor=none;align=center;verticalAlign=middle;whiteSpace=wrap;rounded=0;fontSize=30;fontStyle=1" vertex="1" parent="1">
          <mxGeometry x="965" y="-130" width="60" height="30" as="geometry" />
        </mxCell>
        <mxCell id="5d06dSyMwtI4KQ1la-HC-77" value="*" style="text;html=1;strokeColor=none;fillColor=none;align=center;verticalAlign=middle;whiteSpace=wrap;rounded=0;fontSize=30;fontStyle=1" vertex="1" parent="1">
          <mxGeometry x="592.5" y="660" width="60" height="30" as="geometry" />
        </mxCell>
        <mxCell id="5d06dSyMwtI4KQ1la-HC-78" value="*" style="text;html=1;strokeColor=none;fillColor=none;align=center;verticalAlign=middle;whiteSpace=wrap;rounded=0;fontSize=30;fontStyle=1" vertex="1" parent="1">
          <mxGeometry x="1330" y="675" width="60" height="30" as="geometry" />
        </mxCell>
        <mxCell id="5d06dSyMwtI4KQ1la-HC-79" value="*" style="text;html=1;strokeColor=none;fillColor=none;align=center;verticalAlign=middle;whiteSpace=wrap;rounded=0;fontSize=30;fontStyle=1" vertex="1" parent="1">
          <mxGeometry x="1282.5" y="198" width="60" height="30" as="geometry" />
        </mxCell>
        <mxCell id="5d06dSyMwtI4KQ1la-HC-80" value="*" style="text;html=1;strokeColor=none;fillColor=none;align=center;verticalAlign=middle;whiteSpace=wrap;rounded=0;fontSize=30;fontStyle=1" vertex="1" parent="1">
          <mxGeometry x="1260" y="-160" width="60" height="30" as="geometry" />
        </mxCell>
        <mxCell id="5d06dSyMwtI4KQ1la-HC-81" value="*" style="text;html=1;strokeColor=none;fillColor=none;align=center;verticalAlign=middle;whiteSpace=wrap;rounded=0;fontSize=30;fontStyle=1" vertex="1" parent="1">
          <mxGeometry x="764" y="-304" width="60" height="30" as="geometry" />
        </mxCell>
        <mxCell id="5d06dSyMwtI4KQ1la-HC-82" value="1" style="text;html=1;strokeColor=none;fillColor=none;align=center;verticalAlign=middle;whiteSpace=wrap;rounded=0;fontSize=22;fontStyle=1" vertex="1" parent="1">
          <mxGeometry x="1500" y="-335" width="60" height="30" as="geometry" />
        </mxCell>
        <mxCell id="5d06dSyMwtI4KQ1la-HC-83" value="*" style="text;html=1;strokeColor=none;fillColor=none;align=center;verticalAlign=middle;whiteSpace=wrap;rounded=0;fontSize=30;fontStyle=1" vertex="1" parent="1">
          <mxGeometry x="392" y="-167" width="60" height="30" as="geometry" />
        </mxCell>
        <mxCell id="5d06dSyMwtI4KQ1la-HC-84" value="*" style="text;html=1;strokeColor=none;fillColor=none;align=center;verticalAlign=middle;whiteSpace=wrap;rounded=0;fontSize=30;fontStyle=1" vertex="1" parent="1">
          <mxGeometry x="-52" y="-197" width="60" height="30" as="geometry" />
        </mxCell>
        <mxCell id="5d06dSyMwtI4KQ1la-HC-85" value="1" style="text;html=1;strokeColor=none;fillColor=none;align=center;verticalAlign=middle;whiteSpace=wrap;rounded=0;fontSize=22;fontStyle=1" vertex="1" parent="1">
          <mxGeometry x="-9" y="-365" width="60" height="30" as="geometry" />
        </mxCell>
        <mxCell id="5d06dSyMwtI4KQ1la-HC-86" value="1" style="text;html=1;strokeColor=none;fillColor=none;align=center;verticalAlign=middle;whiteSpace=wrap;rounded=0;fontSize=22;fontStyle=1" vertex="1" parent="1">
          <mxGeometry x="392" y="-67" width="60" height="30" as="geometry" />
        </mxCell>
        <mxCell id="5d06dSyMwtI4KQ1la-HC-87" value="1" style="text;html=1;strokeColor=none;fillColor=none;align=center;verticalAlign=middle;whiteSpace=wrap;rounded=0;fontSize=22;fontStyle=1" vertex="1" parent="1">
          <mxGeometry x="21" y="-59" width="60" height="30" as="geometry" />
        </mxCell>
        <mxCell id="5d06dSyMwtI4KQ1la-HC-88" value="1" style="text;html=1;strokeColor=none;fillColor=none;align=center;verticalAlign=middle;whiteSpace=wrap;rounded=0;fontSize=22;fontStyle=1" vertex="1" parent="1">
          <mxGeometry x="60" y="-365" width="60" height="30" as="geometry" />
        </mxCell>
        <mxCell id="5d06dSyMwtI4KQ1la-HC-89" value="1" style="text;html=1;strokeColor=none;fillColor=none;align=center;verticalAlign=middle;whiteSpace=wrap;rounded=0;fontSize=22;fontStyle=1" vertex="1" parent="1">
          <mxGeometry x="940" y="660" width="60" height="30" as="geometry" />
        </mxCell>
        <mxCell id="5d06dSyMwtI4KQ1la-HC-90" value="" style="endArrow=none;html=1;rounded=0;strokeWidth=2;" edge="1" parent="1">
          <mxGeometry width="50" height="50" relative="1" as="geometry">
            <mxPoint x="830" y="-600" as="sourcePoint" />
            <mxPoint x="1520" y="-550" as="targetPoint" />
            <Array as="points">
              <mxPoint x="1520" y="-600" />
            </Array>
          </mxGeometry>
        </mxCell>
        <mxCell id="5d06dSyMwtI4KQ1la-HC-91" value="" style="endArrow=none;html=1;rounded=0;exitX=0.25;exitY=0;exitDx=0;exitDy=0;strokeWidth=2;" edge="1" parent="1">
          <mxGeometry width="50" height="50" relative="1" as="geometry">
            <mxPoint x="57.5" y="-550" as="sourcePoint" />
            <mxPoint x="830" y="-600" as="targetPoint" />
            <Array as="points">
              <mxPoint x="58" y="-600" />
            </Array>
          </mxGeometry>
        </mxCell>
        <mxCell id="5d06dSyMwtI4KQ1la-HC-92" value="" style="endArrow=none;html=1;rounded=0;entryX=-0.004;entryY=0.265;entryDx=0;entryDy=0;entryPerimeter=0;" edge="1" parent="1" target="5d06dSyMwtI4KQ1la-HC-13">
          <mxGeometry width="50" height="50" relative="1" as="geometry">
            <mxPoint x="600" y="685" as="sourcePoint" />
            <mxPoint x="1020" y="690" as="targetPoint" />
          </mxGeometry>
        </mxCell>
        <mxCell id="5d06dSyMwtI4KQ1la-HC-93" value="&lt;b style=&quot;border-color: var(--border-color);&quot;&gt;&lt;font style=&quot;font-size: 20px;&quot;&gt;Simple_User / &lt;br&gt;Απλός Χρήστης&lt;/font&gt;&lt;/b&gt;" style="swimlane;fontStyle=1;align=center;verticalAlign=top;childLayout=stackLayout;horizontal=1;startSize=60;horizontalStack=0;resizeParent=1;resizeParentMax=0;resizeLast=0;collapsible=1;marginBottom=0;whiteSpace=wrap;html=1;" vertex="1" parent="1">
          <mxGeometry y="-550" width="210" height="180" as="geometry" />
        </mxCell>
        <mxCell id="5d06dSyMwtI4KQ1la-HC-94" value="&lt;font style=&quot;font-size: 19px;&quot;&gt;- score: int&lt;/font&gt;" style="text;strokeColor=none;fillColor=none;align=left;verticalAlign=top;spacingLeft=4;spacingRight=4;overflow=hidden;rotatable=0;points=[[0,0.5],[1,0.5]];portConstraint=eastwest;whiteSpace=wrap;html=1;" vertex="1" parent="5d06dSyMwtI4KQ1la-HC-93">
          <mxGeometry y="60" width="210" height="30" as="geometry" />
        </mxCell>
        <mxCell id="5d06dSyMwtI4KQ1la-HC-95" value="" style="line;strokeWidth=1;fillColor=none;align=left;verticalAlign=middle;spacingTop=-1;spacingLeft=3;spacingRight=3;rotatable=0;labelPosition=right;points=[];portConstraint=eastwest;strokeColor=inherit;" vertex="1" parent="5d06dSyMwtI4KQ1la-HC-93">
          <mxGeometry y="90" width="210" height="8" as="geometry" />
        </mxCell>
        <mxCell id="5d06dSyMwtI4KQ1la-HC-96" value="&lt;font style=&quot;font-size: 20px;&quot;&gt;+ setters/getters&lt;br&gt;+ store()&lt;/font&gt;" style="text;strokeColor=none;fillColor=none;align=left;verticalAlign=top;spacingLeft=4;spacingRight=4;overflow=hidden;rotatable=0;points=[[0,0.5],[1,0.5]];portConstraint=eastwest;whiteSpace=wrap;html=1;" vertex="1" parent="5d06dSyMwtI4KQ1la-HC-93">
          <mxGeometry y="98" width="210" height="82" as="geometry" />
        </mxCell>
        <mxCell id="5d06dSyMwtI4KQ1la-HC-97" value="" style="endArrow=none;html=1;rounded=0;exitX=0;exitY=0.5;exitDx=0;exitDy=0;entryX=1.008;entryY=0.293;entryDx=0;entryDy=0;entryPerimeter=0;" edge="1" parent="1">
          <mxGeometry width="50" height="50" relative="1" as="geometry">
            <mxPoint x="229.50000000000023" y="200.00000000000023" as="sourcePoint" />
            <mxPoint x="435.6399999999999" y="200.23000000000002" as="targetPoint" />
          </mxGeometry>
        </mxCell>
        <mxCell id="5d06dSyMwtI4KQ1la-HC-98" value="" style="line;strokeWidth=1;fillColor=none;align=left;verticalAlign=middle;spacingTop=-1;spacingLeft=3;spacingRight=3;rotatable=0;labelPosition=right;points=[];portConstraint=eastwest;strokeColor=inherit;" vertex="1" parent="1">
          <mxGeometry x="736" y="-482" width="188" height="8" as="geometry" />
        </mxCell>
        <mxCell id="5d06dSyMwtI4KQ1la-HC-99" value="" style="line;strokeWidth=1;fillColor=none;align=left;verticalAlign=middle;spacingTop=-1;spacingLeft=3;spacingRight=3;rotatable=0;labelPosition=right;points=[];portConstraint=eastwest;strokeColor=inherit;" vertex="1" parent="1">
          <mxGeometry x="1421" y="-404" width="188" height="8" as="geometry" />
        </mxCell>
        <mxCell id="5d06dSyMwtI4KQ1la-HC-100" value="" style="endArrow=none;html=1;rounded=0;exitX=0.994;exitY=0.622;exitDx=0;exitDy=0;exitPerimeter=0;" edge="1" parent="1" source="5d06dSyMwtI4KQ1la-HC-3">
          <mxGeometry width="50" height="50" relative="1" as="geometry">
            <mxPoint x="907" y="-695" as="sourcePoint" />
            <mxPoint x="735" y="-695" as="targetPoint" />
          </mxGeometry>
        </mxCell>
        <mxCell id="5d06dSyMwtI4KQ1la-HC-101" value="" style="endArrow=none;html=1;rounded=0;exitX=-0.001;exitY=0.706;exitDx=0;exitDy=0;exitPerimeter=0;" edge="1" parent="1">
          <mxGeometry width="50" height="50" relative="1" as="geometry">
            <mxPoint x="1014.7449999999999" y="-45.37999999999988" as="sourcePoint" />
            <mxPoint x="1270" y="-46" as="targetPoint" />
          </mxGeometry>
        </mxCell>
        <mxCell id="Q7qh14o072M1BOec6SDw-1" value="&lt;b&gt;NewQuizController&lt;/b&gt;" style="swimlane;fontStyle=0;childLayout=stackLayout;horizontal=1;startSize=50;horizontalStack=0;resizeParent=1;resizeParentMax=0;resizeLast=0;collapsible=1;marginBottom=0;whiteSpace=wrap;html=1;fontSize=20;" vertex="1" parent="1">
          <mxGeometry x="11.25" y="1140" width="322.5" height="340" as="geometry" />
        </mxCell>
        <mxCell id="Q7qh14o072M1BOec6SDw-4" value="" style="endArrow=none;html=1;rounded=0;exitX=0;exitY=0.5;exitDx=0;exitDy=0;entryX=0.997;entryY=0.683;entryDx=0;entryDy=0;entryPerimeter=0;" edge="1" parent="Q7qh14o072M1BOec6SDw-1">
          <mxGeometry width="50" height="50" relative="1" as="geometry">
            <mxPoint x="0.9700000000000273" y="110.23000000000002" as="sourcePoint" />
            <mxPoint x="322.5024999999996" y="109.99999999999977" as="targetPoint" />
          </mxGeometry>
        </mxCell>
        <mxCell id="Q7qh14o072M1BOec6SDw-2" value="&lt;br&gt;- UI_variables&lt;br&gt;&lt;br&gt;+validateQuizForm()&lt;br&gt;+show()&lt;br&gt;+showMessage()&lt;br&gt;+validateFileSize()&lt;br&gt;+quizTourConnection(Quiz, Tour)&lt;br&gt;+upload()&lt;br&gt;+notifyUsers(int quizId)&lt;br&gt;+createQuiz()&lt;br&gt;" style="text;strokeColor=none;fillColor=none;align=left;verticalAlign=top;spacingLeft=4;spacingRight=4;overflow=hidden;points=[[0,0.5],[1,0.5]];portConstraint=eastwest;rotatable=0;whiteSpace=wrap;html=1;fontSize=20;" vertex="1" parent="Q7qh14o072M1BOec6SDw-1">
          <mxGeometry y="50" width="322.5" height="290" as="geometry" />
        </mxCell>
        <mxCell id="RjPn4u-8GVzO6hy0bJwA-1" value="&lt;b&gt;TourHistoryController&lt;/b&gt;" style="swimlane;fontStyle=0;childLayout=stackLayout;horizontal=1;startSize=50;horizontalStack=0;resizeParent=1;resizeParentMax=0;resizeLast=0;collapsible=1;marginBottom=0;whiteSpace=wrap;html=1;fontSize=20;" vertex="1" parent="1">
          <mxGeometry x="400.5" y="1215" width="330" height="190" as="geometry" />
        </mxCell>
        <mxCell id="RjPn4u-8GVzO6hy0bJwA-2" value="&lt;br&gt;-UI_variables&lt;br&gt;&lt;br&gt;+getTours(int guide_id)&lt;br&gt;+returnTour : int" style="text;strokeColor=none;fillColor=none;align=left;verticalAlign=top;spacingLeft=4;spacingRight=4;overflow=hidden;points=[[0,0.5],[1,0.5]];portConstraint=eastwest;rotatable=0;whiteSpace=wrap;html=1;fontSize=20;" vertex="1" parent="RjPn4u-8GVzO6hy0bJwA-1">
          <mxGeometry y="50" width="330" height="140" as="geometry" />
        </mxCell>
        <mxCell id="RjPn4u-8GVzO6hy0bJwA-3" value="" style="endArrow=none;html=1;rounded=0;exitX=0;exitY=0.5;exitDx=0;exitDy=0;entryX=0.997;entryY=0.683;entryDx=0;entryDy=0;entryPerimeter=0;" edge="1" parent="RjPn4u-8GVzO6hy0bJwA-1">
          <mxGeometry width="50" height="50" relative="1" as="geometry">
            <mxPoint y="111.23000000000002" as="sourcePoint" />
            <mxPoint x="321.5324999999996" y="110.99999999999977" as="targetPoint" />
          </mxGeometry>
        </mxCell>
        <mxCell id="e3J_sWJx_M8A2YianaXN-1" value="&lt;b&gt;JobApplicationController&lt;/b&gt;" style="swimlane;fontStyle=0;childLayout=stackLayout;horizontal=1;startSize=50;horizontalStack=0;resizeParent=1;resizeParentMax=0;resizeLast=0;collapsible=1;marginBottom=0;whiteSpace=wrap;html=1;fontSize=20;" vertex="1" parent="1">
          <mxGeometry x="790" y="1200" width="340" height="260" as="geometry" />
        </mxCell>
        <mxCell id="e3J_sWJx_M8A2YianaXN-3" value="" style="endArrow=none;html=1;rounded=0;exitX=0;exitY=0.5;exitDx=0;exitDy=0;entryX=0.997;entryY=0.683;entryDx=0;entryDy=0;entryPerimeter=0;" edge="1" parent="e3J_sWJx_M8A2YianaXN-1">
          <mxGeometry width="50" height="50" relative="1" as="geometry">
            <mxPoint x="9.230000000000018" y="99.23000000000002" as="sourcePoint" />
            <mxPoint x="330.7624999999996" y="98.99999999999977" as="targetPoint" />
          </mxGeometry>
        </mxCell>
        <mxCell id="e3J_sWJx_M8A2YianaXN-2" value="-UI_variables&lt;br&gt;&lt;br&gt;+validateForm()&lt;br&gt;+showMessage()&lt;br&gt;+validateFileSize()&lt;br&gt;+show()&lt;br&gt;+sendApplication()&lt;br&gt;+createApplication()" style="text;strokeColor=none;fillColor=none;align=left;verticalAlign=top;spacingLeft=4;spacingRight=4;overflow=hidden;points=[[0,0.5],[1,0.5]];portConstraint=eastwest;rotatable=0;whiteSpace=wrap;html=1;fontSize=20;" vertex="1" parent="e3J_sWJx_M8A2YianaXN-1">
          <mxGeometry y="50" width="340" height="210" as="geometry" />
        </mxCell>
        <mxCell id="lSP7bxkdezc1FJtSW6hc-1" value="&lt;b&gt;JobOffersListController&lt;/b&gt;" style="swimlane;fontStyle=0;childLayout=stackLayout;horizontal=1;startSize=50;horizontalStack=0;resizeParent=1;resizeParentMax=0;resizeLast=0;collapsible=1;marginBottom=0;whiteSpace=wrap;html=1;fontSize=20;" vertex="1" parent="1">
          <mxGeometry x="1210" y="1280" width="322.5" height="160" as="geometry" />
        </mxCell>
        <mxCell id="lSP7bxkdezc1FJtSW6hc-3" value="" style="endArrow=none;html=1;rounded=0;exitX=0;exitY=0.5;exitDx=0;exitDy=0;entryX=0.997;entryY=0.683;entryDx=0;entryDy=0;entryPerimeter=0;" edge="1" parent="lSP7bxkdezc1FJtSW6hc-1">
          <mxGeometry width="50" height="50" relative="1" as="geometry">
            <mxPoint x="0.9700000000000273" y="90.23000000000002" as="sourcePoint" />
            <mxPoint x="322.5024999999996" y="89.99999999999977" as="targetPoint" />
          </mxGeometry>
        </mxCell>
        <mxCell id="lSP7bxkdezc1FJtSW6hc-2" value="-UI_variables&lt;br&gt;&lt;br&gt;+show()&lt;br&gt;+refreshList()" style="text;strokeColor=none;fillColor=none;align=left;verticalAlign=top;spacingLeft=4;spacingRight=4;overflow=hidden;points=[[0,0.5],[1,0.5]];portConstraint=eastwest;rotatable=0;whiteSpace=wrap;html=1;fontSize=20;" vertex="1" parent="lSP7bxkdezc1FJtSW6hc-1">
          <mxGeometry y="50" width="322.5" height="110" as="geometry" />
        </mxCell>
        <mxCell id="LCXtSb2IchwOv4IqGB27-1" value="&lt;b&gt;SearchController&lt;/b&gt;" style="swimlane;fontStyle=0;childLayout=stackLayout;horizontal=1;startSize=50;horizontalStack=0;resizeParent=1;resizeParentMax=0;resizeLast=0;collapsible=1;marginBottom=0;whiteSpace=wrap;html=1;fontSize=20;" vertex="1" parent="1">
          <mxGeometry x="408" y="1470" width="322.5" height="160" as="geometry" />
        </mxCell>
        <mxCell id="LCXtSb2IchwOv4IqGB27-3" value="" style="endArrow=none;html=1;rounded=0;exitX=0;exitY=0.5;exitDx=0;exitDy=0;entryX=0.997;entryY=0.683;entryDx=0;entryDy=0;entryPerimeter=0;" edge="1" parent="LCXtSb2IchwOv4IqGB27-1">
          <mxGeometry width="50" height="50" relative="1" as="geometry">
            <mxPoint x="0.9700000000000273" y="90.23000000000002" as="sourcePoint" />
            <mxPoint x="322.5024999999996" y="89.99999999999977" as="targetPoint" />
          </mxGeometry>
        </mxCell>
        <mxCell id="LCXtSb2IchwOv4IqGB27-2" value="-UI_variables&lt;br&gt;&lt;br&gt;+loadTags()&lt;br&gt;+retSearchResult()" style="text;strokeColor=none;fillColor=none;align=left;verticalAlign=top;spacingLeft=4;spacingRight=4;overflow=hidden;points=[[0,0.5],[1,0.5]];portConstraint=eastwest;rotatable=0;whiteSpace=wrap;html=1;fontSize=20;" vertex="1" parent="LCXtSb2IchwOv4IqGB27-1">
          <mxGeometry y="50" width="322.5" height="110" as="geometry" />
        </mxCell>
      </root>
    </mxGraphModel>
  </diagram>
</mxfile>
